<svg id="visual" viewBox="0 0 900 600" width="900" height="600" xmlns="http://www.w3.org/2000/svg" xmlns:xlink="http://www.w3.org/1999/xlink" version="1.1"><rect x="0" y="0" width="900" height="600" fill="#D7D7D7"></rect><path d="M0 158L25 168C50 178 100 198 150 211.7C200 225.3 250 232.7 300 227.2C350 221.7 400 203.3 450 195.5C500 187.7 550 190.3 600 192.7C650 195 700 197 750 199.8C800 202.7 850 206.3 875 208.2L900 210L900 601L875 601C850 601 800 601 750 601C700 601 650 601 600 601C550 601 500 601 450 601C400 601 350 601 300 601C250 601 200 601 150 601C100 601 50 601 25 601L0 601Z" fill="#1e4e6c"></path><path d="M0 280L25 278.3C50 276.7 100 273.3 150 275.7C200 278 250 286 300 293C350 300 400 306 450 311.7C500 317.3 550 322.7 600 309C650 295.3 700 262.7 750 259.3C800 256 850 282 875 295L900 308L900 601L875 601C850 601 800 601 750 601C700 601 650 601 600 601C550 601 500 601 450 601C400 601 350 601 300 601C250 601 200 601 150 601C100 601 50 601 25 601L0 601Z" fill="#143a52"></path><path d="M0 390L25 383.5C50 377 100 364 150 360.3C200 356.7 250 362.3 300 361C350 359.7 400 351.3 450 349C500 346.7 550 350.3 600 349.8C650 349.3 700 344.7 750 352C800 359.3 850 378.7 875 388.3L900 398L900 601L875 601C850 601 800 601 750 601C700 601 650 601 600 601C550 601 500 601 450 601C400 601 350 601 300 601C250 601 200 601 150 601C100 601 50 601 25 601L0 601Z" fill="#0a2739"></path><path d="M0 468L25 455.5C50 443 100 418 150 413.2C200 408.3 250 423.7 300 434.8C350 446 400 453 450 450.7C500 448.3 550 436.7 600 426.8C650 417 700 409 750 405.2C800 401.3 850 401.7 875 401.8L900 402L900 601L875 601C850 601 800 601 750 601C700 601 650 601 600 601C550 601 500 601 450 601C400 601 350 601 300 601C250 601 200 601 150 601C100 601 50 601 25 601L0 601Z" fill="#0b2231"></path><path d="M0 524L25 518.5C50 513 100 502 150 501.7C200 501.3 250 511.7 300 514.7C350 517.7 400 513.3 450 510C500 506.7 550 504.3 600 503C650 501.7 700 501.3 750 499.8C800 498.3 850 495.7 875 494.3L900 493L900 601L875 601C850 601 800 601 750 601C700 601 650 601 600 601C550 601 500 601 450 601C400 601 350 601 300 601C250 601 200 601 150 601C100 601 50 601 25 601L0 601Z" fill="#0b1e2a"></path></svg>